<svg width="12" height="13" viewBox="0 0 12 13" fill="none" xmlns="http://www.w3.org/2000/svg">
<g clip-path="url(#clip0_3413_19772)">
<path fill-rule="evenodd" clip-rule="evenodd" d="M6.236 0C7.888 0 9.176 0.298 10.102 0.893C11.027 1.488 11.49 2.378 11.49 3.562C11.49 4.163 11.317 4.701 10.974 5.172C10.631 5.646 10.13 6.002 9.475 6.24C10.318 6.407 10.949 6.763 11.37 7.311C11.789 7.861 12 8.494 12 9.214C12 10.459 11.556 11.401 10.67 12.039C9.784 12.68 8.526 13 6.901 13H0V10.833H1.494V2.167H0V0H6.236ZM4.308 5.446H6.332C7.084 5.446 7.662 5.303 8.066 5.016C8.471 4.731 8.674 4.315 8.674 3.766C8.674 3.166 8.47 2.722 8.062 2.436C7.654 2.15 7.046 2.009 6.236 2.009H4.308V5.446ZM4.308 7.25V11H6.901C7.648 11 8.215 10.848 8.608 10.548C8.998 10.248 9.196 9.803 9.196 9.214C9.196 8.578 9.028 8.09 8.696 7.754C8.36 7.419 7.832 7.25 7.114 7.25H4.308Z" fill="#303030"/>
</g>
<defs>
<clipPath id="clip0_3413_19772">
<rect width="12" height="13" fill="white"/>
</clipPath>
</defs>
</svg>
