<svg width="15" height="15" viewBox="0 0 15 15" fill="none" xmlns="http://www.w3.org/2000/svg">
<g clip-path="url(#clip0_3413_19711)">
<path fill-rule="evenodd" clip-rule="evenodd" d="M11.5555 14.8866H3.38752C3.30106 14.8866 3.21814 14.8523 3.15701 14.7912C3.09587 14.73 3.06152 14.6471 3.06152 14.5606C3.06152 14.4742 3.09587 14.3913 3.15701 14.3301C3.21814 14.269 3.30106 14.2346 3.38752 14.2346H11.5545C11.641 14.2346 11.7239 14.269 11.785 14.3301C11.8462 14.3913 11.8805 14.4742 11.8805 14.5606C11.8805 14.6471 11.8462 14.73 11.785 14.7912C11.7239 14.8523 11.641 14.8866 11.5545 14.8866H11.5555ZM14.6175 10.1616H0.325523C0.23893 10.1616 0.155884 10.1272 0.0946531 10.066C0.0334225 10.0048 -0.000976562 9.92173 -0.000976562 9.83514C-0.000976563 9.74855 0.0334225 9.6655 0.0946531 9.60427C0.155884 9.54304 0.23893 9.50864 0.325523 9.50864H14.6175C14.7041 9.50864 14.7872 9.54304 14.8484 9.60427C14.9096 9.6655 14.944 9.74855 14.944 9.83514C14.944 9.92173 14.9096 10.0048 14.8484 10.066C14.7872 10.1272 14.7041 10.1616 14.6175 10.1616V10.1616ZM11.5555 5.43464H3.38752C3.30106 5.43464 3.21814 5.40029 3.15701 5.33916C3.09587 5.27802 3.06152 5.1951 3.06152 5.10864C3.06152 5.02218 3.09587 4.93926 3.15701 4.87812C3.21814 4.81699 3.30106 4.78264 3.38752 4.78264H11.5545C11.641 4.78264 11.7239 4.81699 11.785 4.87812C11.8462 4.93926 11.8805 5.02218 11.8805 5.10864C11.8805 5.1951 11.8462 5.27802 11.785 5.33916C11.7239 5.40029 11.641 5.43464 11.5545 5.43464H11.5555ZM14.6175 0.708641H0.325523C0.239063 0.708641 0.156143 0.674294 0.0950066 0.613157C0.0338698 0.552021 -0.000476562 0.469101 -0.000476562 0.382641C-0.000476562 0.29618 0.0338698 0.213261 0.0950066 0.152124C0.156143 0.090987 0.239063 0.0566406 0.325523 0.0566406H14.6175C14.704 0.0566406 14.7869 0.090987 14.848 0.152124C14.9092 0.213261 14.9435 0.29618 14.9435 0.382641C14.9435 0.469101 14.9092 0.552021 14.848 0.613157C14.7869 0.674294 14.704 0.708641 14.6175 0.708641Z" fill="#303030"/>
</g>
<defs>
<clipPath id="clip0_3413_19711">
<rect width="15" height="15" fill="white"/>
</clipPath>
</defs>
</svg>
