<svg width="15" height="15" viewBox="0 0 15 15" fill="none" xmlns="http://www.w3.org/2000/svg">
<g clip-path="url(#clip0_3415_19852)">
<path fill-rule="evenodd" clip-rule="evenodd" d="M12.5565 14.83H4.3885C4.30204 14.83 4.21912 14.7957 4.15799 14.7346C4.09685 14.6734 4.0625 14.5905 4.0625 14.504C4.0625 14.4176 4.09685 14.3347 4.15799 14.2735C4.21912 14.2124 4.30204 14.178 4.3885 14.178H12.5555C12.642 14.178 12.7249 14.2124 12.786 14.2735C12.8472 14.3347 12.8815 14.4176 12.8815 14.504C12.8815 14.5905 12.8472 14.6734 12.786 14.7346C12.7249 14.7957 12.642 14.83 12.5555 14.83H12.5565ZM15.6185 10.105H1.3265C1.23991 10.105 1.15686 10.0706 1.09563 10.0094C1.0344 9.94816 1 9.86509 1 9.7785C1 9.69191 1.0344 9.60886 1.09563 9.54763C1.15686 9.4864 1.23991 9.452 1.3265 9.452H15.6185C15.7051 9.452 15.7882 9.4864 15.8494 9.54763C15.9106 9.60886 15.945 9.69191 15.945 9.7785C15.945 9.86509 15.9106 9.94816 15.8494 10.0094C15.7882 10.0706 15.7051 10.105 15.6185 10.105ZM12.5565 5.378H4.3885C4.30204 5.378 4.21912 5.34365 4.15799 5.28252C4.09685 5.22138 4.0625 5.13846 4.0625 5.052C4.0625 4.96554 4.09685 4.88262 4.15799 4.82148C4.21912 4.76035 4.30204 4.726 4.3885 4.726H12.5555C12.642 4.726 12.7249 4.76035 12.786 4.82148C12.8472 4.88262 12.8815 4.96554 12.8815 5.052C12.8815 5.13846 12.8472 5.22138 12.786 5.28252C12.7249 5.34365 12.642 5.378 12.5555 5.378H12.5565ZM15.6185 0.652H1.3265C1.24004 0.652 1.15712 0.617653 1.09598 0.556516C1.03485 0.49538 1.0005 0.41246 1.0005 0.326C1.0005 0.239539 1.03485 0.15662 1.09598 0.0954834C1.15712 0.0343464 1.24004 0 1.3265 0H15.6185C15.705 0 15.7879 0.0343464 15.849 0.0954834C15.9102 0.15662 15.9445 0.239539 15.9445 0.326C15.9445 0.41246 15.9102 0.49538 15.849 0.556516C15.7879 0.617653 15.705 0.652 15.6185 0.652Z" fill="white"/>
</g>
<defs>
<clipPath id="clip0_3415_19852">
<rect width="15" height="15" fill="white"/>
</clipPath>
</defs>
</svg>
