<svg width="13" height="15" viewBox="0 0 13 15" fill="none" xmlns="http://www.w3.org/2000/svg">
<g clip-path="url(#clip0_3415_19783)">
<path fill-rule="evenodd" clip-rule="evenodd" d="M1.021 2.906C1.207 4.125 1.393 4.406 1.393 5.625C1.393 6.375 0 7.031 0 7.031V7.969C0 7.969 1.393 8.625 1.393 9.375C1.393 10.594 1.207 10.875 1.021 12.094C0.743 14.063 1.764 15 2.693 15H4.643V13.125C4.643 13.125 2.971 13.313 2.971 12.187C2.971 11.344 3.157 11.344 3.343 9.469C3.436 8.625 2.879 7.969 2.321 7.5C2.879 7.031 3.436 6.469 3.343 5.625C3.064 3.75 2.97 3.75 2.97 2.906C2.97 1.781 4.642 1.875 4.642 1.875V0H2.692C1.67 0 0.743 0.938 1.02 2.906H1.021ZM11.979 2.906C11.793 4.125 11.607 4.406 11.607 5.625C11.607 6.375 13 7.031 13 7.031V7.969C13 7.969 11.607 8.625 11.607 9.375C11.607 10.594 11.793 10.875 11.979 12.094C12.257 14.063 11.236 15 10.307 15H8.357V13.125C8.357 13.125 10.029 13.313 10.029 12.187C10.029 11.344 9.843 11.344 9.657 9.469C9.564 8.625 10.121 7.969 10.679 7.5C10.121 7.031 9.564 6.469 9.657 5.625C9.843 3.75 10.029 3.75 10.029 2.906C10.029 1.781 8.357 1.875 8.357 1.875V0H10.307C11.329 0 12.257 0.938 11.979 2.906Z" fill="white"/>
</g>
<defs>
<clipPath id="clip0_3415_19783">
<rect width="13" height="15" fill="white"/>
</clipPath>
</defs>
</svg>
