<svg width="15" height="15" viewBox="0 0 15 15" fill="none" xmlns="http://www.w3.org/2000/svg">
<g clip-path="url(#clip0_3415_19780)">
<path fill-rule="evenodd" clip-rule="evenodd" d="M14.406 0.584901C14.0313 0.210387 13.5233 0 12.9935 0C12.4637 0 11.9557 0.210387 11.581 0.584901L11.041 1.1249C10.9722 1.05609 10.8905 1.0015 10.8006 0.964262C10.7107 0.927021 10.6143 0.907853 10.517 0.907853C10.4197 0.907853 10.3233 0.927021 10.2334 0.964262C10.1435 1.0015 10.0618 1.05609 9.993 1.1249C9.92419 1.19371 9.8696 1.27541 9.83236 1.36531C9.79512 1.45522 9.77595 1.55159 9.77595 1.6489C9.77595 1.74622 9.79512 1.84258 9.83236 1.93249C9.8696 2.0224 9.92419 2.10409 9.993 2.1729L10.168 2.3479L4.342 8.1729L2.32 10.1959C2.15933 10.3564 2.06445 10.5711 2.054 10.7979L2.049 10.9059V10.9079L1.968 12.7369C1.96611 12.7777 1.97252 12.8185 1.98684 12.8568C2.00117 12.895 2.02311 12.93 2.05135 12.9596C2.07958 12.9891 2.11352 13.0126 2.1511 13.0287C2.18869 13.0447 2.22913 13.0529 2.27 13.0529H2.283L3.253 13.0089L3.845 12.9829L4.113 12.9709C4.41 12.9579 4.692 12.8339 4.903 12.6239L12.673 4.8539L12.819 4.9979C12.8877 5.06684 12.9694 5.12153 13.0593 5.15885C13.1492 5.19617 13.2456 5.21538 13.343 5.21538C13.4404 5.21538 13.5368 5.19617 13.6267 5.15885C13.7166 5.12153 13.7983 5.06684 13.867 4.9979C14.157 4.7079 14.157 4.2389 13.867 3.9499L14.407 3.4099C15.187 2.6299 15.187 1.3659 14.407 0.584901H14.406ZM8.795 7.3329L6.065 7.8479L10.517 3.3959L11.625 4.5029L8.795 7.3329ZM2.08 13.6729C0.932 13.6729 0 13.9679 0 14.3329C0 14.6959 0.932 14.9909 2.08 14.9909C3.23 14.9909 4.16 14.6969 4.16 14.3319C4.16 13.9679 3.23 13.6729 2.08 13.6729Z" fill="white"/>
</g>
<defs>
<clipPath id="clip0_3415_19780">
<rect width="15" height="15" fill="white"/>
</clipPath>
</defs>
</svg>
