<svg width="17" height="17" viewBox="0 0 17 17" fill="none" xmlns="http://www.w3.org/2000/svg">
<g clip-path="url(#clip0_3415_19789)">
<path d="M6.70783 6.61521C6.59723 6.5819 6.47794 6.59383 6.37613 6.64839C6.27433 6.70295 6.19833 6.79567 6.16483 6.90621L4.33483 12.9512C4.30943 13.0592 4.32613 13.1727 4.38153 13.2688C4.43692 13.3649 4.52685 13.4362 4.63299 13.4684C4.73914 13.5005 4.85354 13.4909 4.9529 13.4417C5.05226 13.3924 5.12912 13.3071 5.16783 13.2032L6.99983 7.16021C7.03348 7.04961 7.02184 6.93018 6.96746 6.82816C6.91308 6.72615 6.82041 6.64991 6.70983 6.61621L6.70783 6.61521ZM8.93082 6.61521C8.82023 6.5819 8.70094 6.59383 8.59913 6.64839C8.49733 6.70295 8.42133 6.79567 8.38782 6.90621L6.55783 12.9512C6.52981 13.0601 6.54498 13.1757 6.60018 13.2737C6.65537 13.3717 6.7463 13.4446 6.85398 13.4772C6.96165 13.5097 7.07774 13.4994 7.17797 13.4483C7.2782 13.3972 7.35483 13.3094 7.39183 13.2032L9.22183 7.15921C9.25548 7.04861 9.24384 6.92918 9.18946 6.82716C9.13508 6.72515 9.04241 6.64891 8.93183 6.61521H8.93082Z" fill="white"/>
<path d="M16.564 0H0.436C0.320366 0 0.209467 0.0459356 0.127701 0.127701C0.0459356 0.209467 0 0.320366 0 0.436V16.564C0 16.804 0.195 17 0.436 17H16.564C16.804 17 17 16.805 17 16.564V0.436C17 0.320366 16.9541 0.209467 16.8723 0.127701C16.7905 0.0459356 16.6796 0 16.564 0ZM3.487 0.872H13.513V2.615H3.487V0.872ZM0.872 0.872H2.615V2.615H0.872V0.872ZM16.128 16.128H0.872V3.488H16.128V16.128ZM16.128 2.615H14.385V0.872H16.128V2.615Z" fill="white"/>
<path d="M3.11651 8.57189C3.35723 8.57189 3.55236 8.37675 3.55236 8.13603C3.55236 7.89532 3.35723 7.7002 3.11651 7.7002C2.8758 7.7002 2.68066 7.89532 2.68066 8.13603C2.68066 8.37675 2.8758 8.57189 3.11651 8.57189Z" fill="white"/>
<path d="M3.11651 12.4078C3.35723 12.4078 3.55236 12.2127 3.55236 11.972C3.55236 11.7313 3.35723 11.5361 3.11651 11.5361C2.8758 11.5361 2.68066 11.7313 2.68066 11.972C2.68066 12.2127 2.8758 12.4078 3.11651 12.4078Z" fill="white"/>
<path d="M14.2537 12.6406H10.1997C10.084 12.6406 9.97314 12.6866 9.89137 12.7683C9.80961 12.8501 9.76367 12.961 9.76367 13.0766C9.76367 13.1923 9.80961 13.3032 9.89137 13.3849C9.97314 13.4667 10.084 13.5126 10.1997 13.5126H14.2537C14.3693 13.5126 14.4802 13.4667 14.562 13.3849C14.6437 13.3032 14.6897 13.1923 14.6897 13.0766C14.6897 12.961 14.6437 12.8501 14.562 12.7683C14.4802 12.6866 14.3693 12.6406 14.2537 12.6406Z" fill="white"/>
</g>
<defs>
<clipPath id="clip0_3415_19789">
<rect width="17" height="17" fill="white"/>
</clipPath>
</defs>
</svg>
