<svg width="17" height="17" viewBox="0 0 17 17" fill="none" xmlns="http://www.w3.org/2000/svg">
<g clip-path="url(#clip0_3413_19749)">
<path d="M13.9792 3.02236C10.9582 0.000359297 6.04223 0.000359297 3.02123 3.02236C0.000234365 6.04236 0.00123429 10.9584 3.02123 13.9804C6.04223 17.0004 10.9582 17.0004 13.9792 13.9794C16.9992 10.9584 16.9992 6.04336 13.9792 3.02236ZM13.1342 13.1344C11.9044 14.3618 10.2378 15.0511 8.50023 15.0511C6.76268 15.0511 5.09609 14.3618 3.86623 13.1344C2.63912 11.9045 1.94997 10.2382 1.94997 8.50086C1.94997 6.76355 2.63912 5.09718 3.86623 3.86736C5.09609 2.63994 6.76268 1.9506 8.50023 1.9506C10.2378 1.9506 11.9044 2.63994 13.1342 3.86736C14.3613 5.09718 15.0505 6.76355 15.0505 8.50086C15.0505 10.2382 14.3613 11.9045 13.1342 13.1344V13.1344ZM5.61024 6.40436C5.6062 6.28292 5.62663 6.1619 5.67032 6.04851C5.71401 5.93513 5.78006 5.83169 5.86454 5.74436C5.94902 5.65702 6.05021 5.58757 6.16208 5.54014C6.27395 5.49271 6.39422 5.46826 6.51573 5.46826C6.63724 5.46826 6.75752 5.49271 6.86939 5.54014C6.98126 5.58757 7.08245 5.65702 7.16693 5.74436C7.25141 5.83169 7.31746 5.93513 7.36115 6.04851C7.40484 6.1619 7.42527 6.28292 7.42123 6.40436C7.41343 6.6393 7.3146 6.86202 7.14564 7.02545C6.97668 7.18889 6.75081 7.28026 6.51573 7.28026C6.28066 7.28026 6.05479 7.18889 5.88583 7.02545C5.71686 6.86202 5.61804 6.6393 5.61024 6.40436ZM9.71623 6.40436C9.71623 6.16407 9.81169 5.93363 9.9816 5.76372C10.1515 5.59381 10.3819 5.49836 10.6222 5.49836C10.8625 5.49836 11.093 5.59381 11.2629 5.76372C11.4328 5.93363 11.5282 6.16407 11.5282 6.40436C11.5282 6.64465 11.4328 6.87509 11.2629 7.045C11.093 7.21491 10.8625 7.31036 10.6222 7.31036C10.3819 7.31036 10.1515 7.21491 9.9816 7.045C9.81169 6.87509 9.71623 6.64465 9.71623 6.40436ZM11.8572 10.1124C11.2962 11.4104 9.98224 12.2494 8.50924 12.2494C7.00424 12.2494 5.68223 11.4064 5.14023 10.1024C5.09568 9.99495 5.09562 9.87423 5.14006 9.76678C5.18451 9.65932 5.26982 9.57392 5.37724 9.52936C5.48465 9.4848 5.60536 9.48474 5.71282 9.52919C5.82028 9.57363 5.90568 9.65895 5.95024 9.76636C6.35524 10.7424 7.36024 11.3734 8.50924 11.3734C9.63224 11.3734 10.6302 10.7424 11.0532 9.76536C11.1013 9.66182 11.1878 9.58111 11.2944 9.54042C11.4011 9.49973 11.5194 9.50226 11.6241 9.54749C11.7289 9.59272 11.8119 9.67706 11.8555 9.78256C11.899 9.88807 11.8996 10.0064 11.8572 10.1124V10.1124Z" fill="#303030"/>
</g>
<defs>
<clipPath id="clip0_3413_19749">
<rect width="17" height="17" fill="white"/>
</clipPath>
</defs>
</svg>
