<svg width="15" height="14" viewBox="0 0 15 14" fill="none" xmlns="http://www.w3.org/2000/svg">
<g clip-path="url(#clip0_3413_19745)">
<path fill-rule="evenodd" clip-rule="evenodd" d="M14.741 0H0.26C0.116 0 0 0.136 0 0.304V13.696C0 13.864 0.116 14 0.259 14H14.74C14.883 14 14.999 13.864 14.999 13.696V0.304C15 0.136 14.884 0 14.741 0ZM14.483 13.391H0.517V0.61H14.483V13.39V13.391Z" fill="#303030"/>
<path fill-rule="evenodd" clip-rule="evenodd" d="M4.13819 6.73766C4.93219 6.73766 5.57819 5.97766 5.57819 5.04266C5.57819 4.10766 4.93219 3.34766 4.13819 3.34766C3.34419 3.34766 2.69819 4.10766 2.69819 5.04266C2.69819 5.97666 3.34419 6.73766 4.13819 6.73766ZM4.13819 3.95666C4.64719 3.95666 5.06119 4.44366 5.06119 5.04266C5.06119 5.64066 4.64719 6.12866 4.13819 6.12866C3.62919 6.12866 3.21519 5.64166 3.21519 5.04266C3.21519 4.44366 3.62919 3.95666 4.13819 3.95666V3.95666ZM1.81019 12.1737C1.87019 12.1737 1.93219 12.1487 1.98119 12.0977L6.20019 7.72766L8.86419 10.8617C8.88588 10.8895 8.91364 10.912 8.94536 10.9275C8.97707 10.943 9.0119 10.9511 9.04719 10.9511C9.08248 10.9511 9.11731 10.943 9.14902 10.9275C9.18074 10.912 9.2085 10.8895 9.23019 10.8617C9.27921 10.8007 9.30594 10.7249 9.30594 10.6467C9.30594 10.5685 9.27921 10.4926 9.23019 10.4317L7.98719 8.96866L10.3612 5.90866L13.2732 9.05066C13.3792 9.16366 13.5432 9.15566 13.6392 9.03066C13.686 8.96791 13.7099 8.89105 13.707 8.81284C13.7041 8.73462 13.6745 8.65975 13.6232 8.60066L10.5192 5.25366C10.4957 5.22778 10.467 5.20725 10.4349 5.19345C10.4028 5.17965 10.3681 5.1729 10.3332 5.17366C10.2977 5.17626 10.2633 5.18656 10.2322 5.20383C10.2011 5.2211 10.1741 5.24492 10.1532 5.27366L7.62219 8.53666L6.39419 7.09366C6.37337 7.06713 6.34702 7.04546 6.31697 7.03016C6.28692 7.01486 6.2539 7.00629 6.2202 7.00505C6.18651 7.00382 6.15295 7.00994 6.12186 7.023C6.09077 7.03605 6.0629 7.05573 6.04019 7.08066L1.64019 11.6407C1.58768 11.6988 1.55666 11.7732 1.55229 11.8514C1.54792 11.9297 1.57047 12.007 1.61619 12.0707C1.63817 12.1019 1.66718 12.1274 1.70089 12.1453C1.73459 12.1632 1.77204 12.1729 1.81019 12.1737V12.1737Z" fill="#303030"/>
</g>
<defs>
<clipPath id="clip0_3413_19745">
<rect width="15" height="14" fill="white"/>
</clipPath>
</defs>
</svg>
