<svg width="15" height="15" viewBox="0 0 15 15" fill="none" xmlns="http://www.w3.org/2000/svg">
<g clip-path="url(#clip0_3413_19756)">
<path fill-rule="evenodd" clip-rule="evenodd" d="M14.6195 14.8876H0.324547C0.238086 14.8876 0.155167 14.8533 0.0940301 14.7922C0.0328932 14.731 -0.0014531 14.6481 -0.0014531 14.5616C-0.0014531 14.4752 0.0328932 14.3923 0.0940301 14.3311C0.155167 14.27 0.238086 14.2356 0.324547 14.2356H14.6195C14.706 14.2356 14.7889 14.27 14.8501 14.3311C14.9112 14.3923 14.9455 14.4752 14.9455 14.5616C14.9455 14.6481 14.9112 14.731 14.8501 14.7922C14.7889 14.8533 14.706 14.8876 14.6195 14.8876V14.8876ZM14.6195 10.1616H0.324547C0.238086 10.1616 0.155167 10.1273 0.0940301 10.0662C0.0328932 10.005 -0.00145313 9.9221 -0.00145313 9.83564C-0.00145313 9.74918 0.0328932 9.66626 0.0940301 9.60512C0.155167 9.54399 0.238086 9.50964 0.324547 9.50964H14.6195C14.706 9.50964 14.7889 9.54399 14.8501 9.60512C14.9112 9.66626 14.9455 9.74918 14.9455 9.83564C14.9455 9.9221 14.9112 10.005 14.8501 10.0662C14.7889 10.1273 14.706 10.1616 14.6195 10.1616V10.1616ZM14.6195 5.43564H0.324547C0.238086 5.43564 0.155167 5.40129 0.0940301 5.34016C0.0328932 5.27902 -0.00145313 5.1961 -0.00145313 5.10964C-0.00145313 5.02318 0.0328932 4.94026 0.0940301 4.87912C0.155167 4.81799 0.238086 4.78364 0.324547 4.78364H14.6195C14.706 4.78364 14.7889 4.81799 14.8501 4.87912C14.9112 4.94026 14.9455 5.02318 14.9455 5.10964C14.9455 5.1961 14.9112 5.27902 14.8501 5.34016C14.7889 5.40129 14.706 5.43564 14.6195 5.43564V5.43564ZM14.6195 0.709641H0.324547C0.237954 0.709641 0.154907 0.675242 0.0936765 0.614011C0.0324459 0.55278 -0.00195312 0.469734 -0.00195312 0.383141C-0.00195312 0.296547 0.0324459 0.213501 0.0936765 0.15227C0.154907 0.0910396 0.237954 0.0566406 0.324547 0.0566406H14.6195C14.7061 0.0566406 14.7892 0.0910396 14.8504 0.15227C14.9116 0.213501 14.946 0.296547 14.946 0.383141C14.946 0.469734 14.9116 0.55278 14.8504 0.614011C14.7892 0.675242 14.7061 0.709641 14.6195 0.709641V0.709641Z" fill="#303030"/>
</g>
<defs>
<clipPath id="clip0_3413_19756">
<rect width="15" height="15" fill="white"/>
</clipPath>
</defs>
</svg>
