<svg width="15" height="15" viewBox="0 0 15 15" fill="none" xmlns="http://www.w3.org/2000/svg">
<g clip-path="url(#clip0_3415_19820)">
<path fill-rule="evenodd" clip-rule="evenodd" d="M8.49252 14.8866H0.325523C0.239063 14.8866 0.156143 14.8523 0.0950066 14.7912C0.0338698 14.73 -0.000476563 14.6471 -0.000476563 14.5606C-0.000476563 14.4742 0.0338698 14.3913 0.0950066 14.3301C0.156143 14.269 0.239063 14.2346 0.325523 14.2346H8.49252C8.57898 14.2346 8.6619 14.269 8.72304 14.3301C8.78418 14.3913 8.81852 14.4742 8.81852 14.5606C8.81852 14.6471 8.78418 14.73 8.72304 14.7912C8.6619 14.8523 8.57898 14.8866 8.49252 14.8866ZM14.6175 10.1616H0.325523C0.23893 10.1616 0.155884 10.1272 0.0946531 10.066C0.0334225 10.0048 -0.000976562 9.92173 -0.000976562 9.83514C-0.000976563 9.74855 0.0334225 9.6655 0.0946531 9.60427C0.155884 9.54304 0.23893 9.50864 0.325523 9.50864H14.6175C14.7041 9.50864 14.7872 9.54304 14.8484 9.60427C14.9096 9.6655 14.944 9.74855 14.944 9.83514C14.944 9.92173 14.9096 10.0048 14.8484 10.066C14.7872 10.1272 14.7041 10.1616 14.6175 10.1616ZM8.49252 5.43464H0.325523C0.239063 5.43464 0.156143 5.40029 0.0950066 5.33916C0.0338698 5.27802 -0.000476563 5.1951 -0.000476563 5.10864C-0.000476563 5.02218 0.0338698 4.93926 0.0950066 4.87812C0.156143 4.81699 0.239063 4.78264 0.325523 4.78264H8.49252C8.57898 4.78264 8.6619 4.81699 8.72304 4.87812C8.78418 4.93926 8.81852 5.02218 8.81852 5.10864C8.81852 5.1951 8.78418 5.27802 8.72304 5.33916C8.6619 5.40029 8.57898 5.43464 8.49252 5.43464ZM14.6175 0.708641H0.325523C0.239063 0.708641 0.156143 0.674294 0.0950066 0.613157C0.0338698 0.552021 -0.000476563 0.469101 -0.000476563 0.382641C-0.000476563 0.29618 0.0338698 0.213261 0.0950066 0.152124C0.156143 0.090987 0.239063 0.0566406 0.325523 0.0566406H14.6175C14.704 0.0566406 14.7869 0.090987 14.848 0.152124C14.9092 0.213261 14.9435 0.29618 14.9435 0.382641C14.9435 0.469101 14.9092 0.552021 14.848 0.613157C14.7869 0.674294 14.704 0.708641 14.6175 0.708641Z" fill="white"/>
</g>
<defs>
<clipPath id="clip0_3415_19820">
<rect width="15" height="15" fill="white"/>
</clipPath>
</defs>
</svg>
