<svg width="15" height="15" viewBox="0 0 15 15" fill="none" xmlns="http://www.w3.org/2000/svg">
<g clip-path="url(#clip0_3415_19825)">
<path fill-rule="evenodd" clip-rule="evenodd" d="M13.9666 0.949978C13.6654 0.647956 13.3073 0.40866 12.913 0.245937C12.5187 0.0832146 12.0961 0.000295582 11.6696 0.00197823C10.7996 0.00197823 9.98357 0.338978 9.37257 0.949978L7.10457 3.21798C6.71633 3.60727 6.4333 4.08876 6.28201 4.61733C6.13071 5.1459 6.11611 5.70422 6.23957 6.23998C5.70389 6.1144 5.145 6.12797 4.61605 6.27937C4.08709 6.43077 3.60567 6.71499 3.21757 7.10498L0.949568 9.37298C0.341478 9.98277 0 10.8088 0 11.67C0 12.5312 0.341478 13.3572 0.949568 13.967C1.25076 14.269 1.60885 14.5083 2.00313 14.671C2.3974 14.8337 2.82004 14.9167 3.24657 14.915C4.11657 14.915 4.93257 14.579 5.54457 13.967L7.81157 11.7C8.19997 11.3106 8.4831 10.8289 8.6344 10.3002C8.7857 9.77141 8.80021 9.21288 8.67657 8.67698C9.21224 8.80255 9.77114 8.78899 10.3001 8.63759C10.829 8.48618 11.3105 8.20197 11.6986 7.81198L13.9666 5.54498C14.5752 4.93527 14.917 4.10898 14.917 3.24748C14.917 2.38598 14.5752 1.55968 13.9666 0.949978ZM7.10457 10.993L4.83657 13.26C4.62798 13.4688 4.38007 13.6342 4.10715 13.7467C3.83423 13.8591 3.54173 13.9163 3.24657 13.915C2.9514 13.9163 2.6589 13.8591 2.38599 13.7467C2.11307 13.6342 1.86515 13.4688 1.65657 13.26C1.2357 12.8378 0.999373 12.2661 0.999373 11.67C0.999373 11.0739 1.2357 10.5021 1.65657 10.08L3.92457 7.81198C4.13312 7.60309 4.38103 7.43764 4.65396 7.32521C4.92688 7.21278 5.2194 7.1556 5.51457 7.15698C5.94457 7.15698 6.35557 7.27698 6.70957 7.49998L4.77157 9.43798C4.72381 9.4841 4.68572 9.53927 4.65952 9.60028C4.63331 9.66128 4.61952 9.72689 4.61894 9.79328C4.61837 9.85967 4.63102 9.92551 4.65616 9.98695C4.6813 10.0484 4.71842 10.1042 4.76537 10.1512C4.81232 10.1981 4.86814 10.2352 4.92959 10.2604C4.99104 10.2855 5.05688 10.2982 5.12327 10.2976C5.18966 10.297 5.25527 10.2832 5.31627 10.257C5.37727 10.2308 5.43244 10.1927 5.47857 10.145L7.41757 8.20698C7.96257 9.07498 7.85957 10.237 7.10457 10.992V10.993ZM13.2596 4.83798L10.9916 7.10498C10.783 7.31382 10.5351 7.47924 10.2621 7.59167C9.98923 7.7041 9.69673 7.76131 9.40157 7.75998C8.97057 7.75998 8.56057 7.63998 8.20657 7.41698L10.1446 5.47898C10.1923 5.43285 10.2304 5.37768 10.2566 5.31668C10.2828 5.25568 10.2966 5.19007 10.2972 5.12368C10.2978 5.05729 10.2851 4.99145 10.26 4.93C10.2348 4.86855 10.1977 4.81273 10.1508 4.76578C10.1038 4.71883 10.048 4.68171 9.98654 4.65657C9.9251 4.63143 9.85926 4.61878 9.79287 4.61935C9.72648 4.61993 9.66087 4.63372 9.59987 4.65993C9.53886 4.68613 9.48369 4.72422 9.43757 4.77198L7.49857 6.70998C7.22837 6.27869 7.11223 5.76861 7.16907 5.26286C7.22591 4.75711 7.45238 4.28553 7.81157 3.92498L10.0786 1.65698C10.2872 1.44813 10.5351 1.28271 10.808 1.17028C11.0809 1.05786 11.3734 1.00065 11.6686 1.00198C11.9639 1.00025 12.2567 1.05714 12.5299 1.16934C12.8031 1.28154 13.0513 1.44682 13.2602 1.65562C13.4691 1.86442 13.6345 2.11258 13.7468 2.38574C13.8591 2.6589 13.9162 2.95163 13.9146 3.24698C13.9146 3.84998 13.6826 4.41498 13.2596 4.83698V4.83798Z" fill="white"/>
</g>
<defs>
<clipPath id="clip0_3415_19825">
<rect width="15" height="15" fill="white"/>
</clipPath>
</defs>
</svg>
