<svg width="13" height="13" viewBox="0 0 13 13" fill="none" xmlns="http://www.w3.org/2000/svg">
<g clip-path="url(#clip0_3415_19846)">
<path fill-rule="evenodd" clip-rule="evenodd" d="M4.20202 1.4656H12.352C12.69 1.4656 12.964 1.1436 12.964 0.745602C12.964 0.348602 12.69 0.0256016 12.352 0.0256016H4.20202C3.86402 0.0256016 3.59102 0.348602 3.59102 0.745602C3.59102 1.1436 3.86402 1.4656 4.20102 1.4656H4.20202ZM12.352 5.7826H4.20202C3.86402 5.7826 3.59102 6.1046 3.59102 6.5026C3.59102 6.8996 3.86402 7.2226 4.20102 7.2226H12.352C12.69 7.2226 12.964 6.8996 12.964 6.5026C12.964 6.1046 12.69 5.7826 12.352 5.7826ZM12.352 11.5396H4.20202C3.86402 11.5396 3.59102 11.8616 3.59102 12.2596C3.59102 12.6556 3.86402 12.9786 4.20102 12.9786H12.352C12.69 12.9786 12.964 12.6556 12.964 12.2586C12.964 11.8616 12.69 11.5386 12.352 11.5386V11.5396ZM0.767016 1.2486V3.0506C0.767016 3.2456 0.903016 3.3936 1.08202 3.3936C1.25802 3.3936 1.39702 3.2436 1.39702 3.0506V0.355602C1.39702 0.165602 1.26402 0.0166016 1.09502 0.0166016C0.947016 0.0166016 0.872016 0.134602 0.848016 0.172602C0.846994 0.174255 0.845994 0.175922 0.845016 0.177602L0.579016 0.620602C0.518624 0.699125 0.484353 0.794597 0.481016 0.893602C0.481016 1.0876 0.609016 1.2446 0.767016 1.2486ZM0.352016 8.1896H1.55002C1.70702 8.1896 1.83502 8.0276 1.83502 7.8276C1.83502 7.6296 1.70702 7.4686 1.55002 7.4686H0.680016V7.4626C0.680016 7.3556 0.890016 7.1816 1.05802 7.0406C1.39402 6.7626 1.81102 6.4156 1.81102 5.8146C1.81102 5.2446 1.43502 4.8146 0.937016 4.8146C0.460016 4.8146 0.101016 5.1996 0.101016 5.7116C0.101016 6.0086 0.265016 6.1136 0.406016 6.1136C0.606016 6.1136 0.727016 5.9376 0.727016 5.7676C0.727016 5.6616 0.750016 5.5396 0.931016 5.5396C1.17402 5.5396 1.18102 5.7936 1.18102 5.8226C1.18102 6.0506 0.929016 6.2646 0.686016 6.4716C0.385016 6.7266 0.0440156 7.0156 0.0440156 7.4636V7.8476C0.0440156 8.0526 0.203016 8.1906 0.352016 8.1906V8.1896ZM1.77002 10.5426C1.77002 9.9506 1.47402 9.6116 0.956016 9.6116C0.276016 9.6116 0.0970156 10.1816 0.0970156 10.4836C0.0970156 10.8346 0.319016 10.8736 0.415016 10.8736C0.600016 10.8736 0.725016 10.7256 0.725016 10.5076C0.725016 10.4236 0.751016 10.3266 0.949016 10.3266C1.09102 10.3266 1.14902 10.3506 1.14902 10.5936C1.14902 10.8306 1.10602 10.8566 0.936016 10.8566C0.772016 10.8566 0.648016 11.0086 0.648016 11.2106C0.648016 11.4106 0.773016 11.5606 0.939016 11.5606C1.16402 11.5606 1.20902 11.6686 1.20902 11.8436V11.9186C1.20902 12.2126 1.11202 12.2686 0.932016 12.2686C0.684016 12.2686 0.665016 12.1186 0.665016 12.0716C0.665016 11.8976 0.567016 11.7216 0.348016 11.7216C0.156016 11.7216 0.0410156 11.8626 0.0410156 12.0996C0.0410156 12.5296 0.354016 12.9876 0.936016 12.9876C1.50002 12.9876 1.83702 12.5876 1.83702 11.9176V11.8436C1.83702 11.5696 1.76302 11.3416 1.62302 11.1776C1.71902 11.0146 1.77102 10.7976 1.77102 10.5426H1.77002Z" fill="white"/>
</g>
<defs>
<clipPath id="clip0_3415_19846">
<rect width="13" height="13" fill="white"/>
</clipPath>
</defs>
</svg>
