<svg width="13" height="16" viewBox="0 0 13 16" fill="none" xmlns="http://www.w3.org/2000/svg">
<g clip-path="url(#clip0_3413_19754)">
<path fill-rule="evenodd" clip-rule="evenodd" d="M6.50363 13.977C5.31268 13.9757 4.17089 13.502 3.32876 12.6599C2.48664 11.8177 2.01295 10.6759 2.01163 9.485C2.01268 8.29388 2.48625 7.15183 3.32841 6.30949C4.17057 5.46715 5.31251 4.99332 6.50363 4.992V7.987L11.4936 3.994L6.50363 0V2.995C4.7832 2.99712 3.13388 3.68163 1.91755 4.89834C0.701214 6.11505 0.0172128 7.76458 0.015625 9.485C0.015625 13.063 2.92563 15.975 6.50363 15.975C8.22387 15.9726 9.87294 15.288 11.0891 14.0713C12.3052 12.8546 12.989 11.2052 12.9906 9.485H10.9946C10.9933 10.6758 10.5198 11.8174 9.67784 12.6595C8.83593 13.5016 7.6944 13.9754 6.50363 13.977V13.977Z" fill="#303030"/>
</g>
<defs>
<clipPath id="clip0_3413_19754">
<rect width="13" height="16" fill="white"/>
</clipPath>
</defs>
</svg>
