<svg width="15" height="15" viewBox="0 0 15 15" fill="none" xmlns="http://www.w3.org/2000/svg">
<g clip-path="url(#clip0_3415_19811)">
<path d="M7.59345 13.125L13.5935 6.375C14.156 5.71875 14.1559 4.6875 13.4997 4.03125L10.9685 1.5C10.6872 1.125 10.2184 0.9375 9.7497 0.9375H8.0622C7.59345 0.9375 7.1247 1.125 6.7497 1.5L0.46845 8.625C-0.0940498 9.28125 -0.0940498 10.4062 0.5622 10.9687L3.09345 13.5C3.3747 13.875 3.84345 14.0625 4.3122 14.0625H14.9997V13.125H7.59345ZM6.3747 13.0312C6.3747 13.0312 6.3747 12.9375 6.3747 13.0312L3.84345 10.5C3.46845 10.125 3.46845 9.65625 3.84345 9.28125L7.03095 5.625H6.09345L3.28095 8.71875C2.71845 9.375 2.71845 10.3125 3.3747 10.9687L5.53095 13.125H4.3122C4.1247 13.125 3.9372 13.0313 3.7497 12.9375L1.1247 10.3125C0.84345 10.0312 0.84345 9.5625 1.1247 9.28125L4.40595 5.625H6.09345L9.3747 1.875H10.3122L7.03095 5.625L9.9372 9.09375L6.65595 12.8437C6.5622 12.9375 6.46845 12.9375 6.3747 13.0312Z" fill="white"/>
</g>
<defs>
<clipPath id="clip0_3415_19811">
<rect width="15" height="15" fill="white"/>
</clipPath>
</defs>
</svg>
