<svg width="15" height="15" viewBox="0 0 15 15" fill="none" xmlns="http://www.w3.org/2000/svg">
<g clip-path="url(#clip0_3413_19761)">
<path fill-rule="evenodd" clip-rule="evenodd" d="M14.6175 14.8866H6.44952C6.36306 14.8866 6.28014 14.8523 6.21901 14.7912C6.15787 14.73 6.12352 14.6471 6.12352 14.5606C6.12352 14.4742 6.15787 14.3913 6.21901 14.3301C6.28014 14.269 6.36306 14.2346 6.44952 14.2346H14.6165C14.703 14.2346 14.7859 14.269 14.847 14.3301C14.9082 14.3913 14.9425 14.4742 14.9425 14.5606C14.9425 14.6471 14.9082 14.73 14.847 14.7912C14.7859 14.8523 14.703 14.8866 14.6165 14.8866H14.6175ZM14.6175 10.1616H0.325523C0.23893 10.1616 0.155884 10.1272 0.0946531 10.066C0.0334225 10.0048 -0.000976562 9.92173 -0.000976562 9.83514C-0.000976563 9.74855 0.0334225 9.6655 0.0946531 9.60427C0.155884 9.54304 0.23893 9.50864 0.325523 9.50864H14.6175C14.7041 9.50864 14.7872 9.54304 14.8484 9.60427C14.9096 9.6655 14.944 9.74855 14.944 9.83514C14.944 9.92173 14.9096 10.0048 14.8484 10.066C14.7872 10.1272 14.7041 10.1616 14.6175 10.1616V10.1616ZM14.6175 5.43464H6.44952C6.36306 5.43464 6.28014 5.40029 6.21901 5.33916C6.15787 5.27802 6.12352 5.1951 6.12352 5.10864C6.12352 5.02218 6.15787 4.93926 6.21901 4.87812C6.28014 4.81699 6.36306 4.78264 6.44952 4.78264H14.6165C14.703 4.78264 14.7859 4.81699 14.847 4.87812C14.9082 4.93926 14.9425 5.02218 14.9425 5.10864C14.9425 5.1951 14.9082 5.27802 14.847 5.33916C14.7859 5.40029 14.703 5.43464 14.6165 5.43464H14.6175ZM14.6175 0.708641H0.325523C0.239063 0.708641 0.156143 0.674294 0.0950066 0.613157C0.0338698 0.552021 -0.000476562 0.469101 -0.000476562 0.382641C-0.000476562 0.29618 0.0338698 0.213261 0.0950066 0.152124C0.156143 0.090987 0.239063 0.0566406 0.325523 0.0566406H14.6175C14.704 0.0566406 14.7869 0.090987 14.848 0.152124C14.9092 0.213261 14.9435 0.29618 14.9435 0.382641C14.9435 0.469101 14.9092 0.552021 14.848 0.613157C14.7869 0.674294 14.704 0.708641 14.6175 0.708641Z" fill="#303030"/>
</g>
<defs>
<clipPath id="clip0_3413_19761">
<rect width="15" height="15" fill="white"/>
</clipPath>
</defs>
</svg>
