<svg width="15" height="13" viewBox="0 0 15 13" fill="none" xmlns="http://www.w3.org/2000/svg">
<g clip-path="url(#clip0_3413_19734)">
<path fill-rule="evenodd" clip-rule="evenodd" d="M4.04017 5.95363H10.2552C9.99937 5.79152 9.73387 5.64525 9.46017 5.51562C8.99045 5.29872 8.50709 5.11266 8.01317 4.95863C6.82517 4.61063 6.04717 4.24763 5.67917 3.87063C5.31117 3.49363 5.12717 3.10063 5.12717 2.68963C5.12717 2.19463 5.31417 1.78362 5.68717 1.45762C6.06717 1.12662 6.57417 0.960625 7.21017 0.960625C7.89017 0.960625 8.47617 1.21562 8.96717 1.72763C9.26217 2.04263 9.54917 2.61862 9.82817 3.45762L9.94517 3.47362L10.6482 3.52362L10.7482 3.49962C10.7762 3.34762 10.7902 3.22062 10.7902 3.11962C10.7902 2.78262 10.7512 2.26762 10.6732 1.57562C10.6324 1.24104 10.5737 0.908886 10.4972 0.580625C9.88017 0.378625 9.38517 0.243625 9.01717 0.175625C8.36517 0.069625 7.89917 0.015625 7.62017 0.015625C6.17017 0.015625 5.07517 0.372625 4.33317 1.08662C3.58617 1.80663 3.21317 2.67562 3.21317 3.69362C3.21317 4.20462 3.34617 4.73363 3.61317 5.27963C3.74217 5.53263 3.88317 5.75763 4.04017 5.95363V5.95363ZM8.28017 8.11363C8.85517 8.34963 9.23717 8.54963 9.42717 8.71263C9.87817 9.12263 10.1042 9.56462 10.1042 10.0366C10.1042 10.4196 9.97417 10.7816 9.71117 11.1246C9.46117 11.4626 9.12117 11.7046 8.69117 11.8506C8.31975 11.9938 7.92616 12.071 7.52817 12.0786C7.12117 12.0786 6.75317 12.0166 6.42417 11.8926C6.10412 11.7888 5.80632 11.626 5.54617 11.4126C5.28021 11.1871 5.05376 10.9187 4.87617 10.6186C4.83537 10.5459 4.80058 10.47 4.77217 10.3916C4.7102 10.2337 4.64754 10.076 4.58417 9.91862C4.50354 9.7177 4.41987 9.51801 4.33317 9.31962L3.48017 9.33663V9.70763L3.46317 10.0206C3.45765 10.2116 3.45765 10.4027 3.46317 10.5936C3.47417 10.8636 3.48017 11.3026 3.48017 11.9096V12.0196C3.48017 12.0986 3.50217 12.1596 3.54717 12.2046C3.63017 12.2726 3.83117 12.3516 4.14917 12.4416L5.31917 12.7786C5.77117 12.9086 6.31517 12.9726 6.95117 12.9726C7.63717 12.9726 8.20317 12.9136 8.64917 12.7956C9.10121 12.6748 9.53265 12.4871 9.92917 12.2386C10.3302 11.9796 10.6342 11.7526 10.8402 11.5556C11.1082 11.2796 11.3062 10.9876 11.4342 10.6776C11.663 10.1094 11.7794 9.50219 11.7772 8.88963C11.7772 8.59163 11.7572 8.33263 11.7192 8.11363H8.28117H8.28017ZM14.9142 6.56963C14.8889 6.54439 14.8588 6.52462 14.8256 6.51155C14.7924 6.49847 14.7568 6.49237 14.7212 6.49363H0.268171C0.232508 6.49237 0.196968 6.49847 0.163764 6.51155C0.13056 6.52462 0.100403 6.54439 0.0751711 6.56963C0.0501846 6.5952 0.030653 6.62558 0.0177607 6.65893C0.00486844 6.69228 -0.00111575 6.7279 0.000171054 6.76363V7.30363C0.000171054 7.38263 0.0251711 7.44663 0.0751711 7.49763C0.100403 7.52286 0.13056 7.54263 0.163764 7.55571C0.196968 7.56878 0.232508 7.57488 0.268171 7.57363H14.7202C14.7558 7.57488 14.7914 7.56878 14.8246 7.55571C14.8578 7.54263 14.8879 7.52286 14.9132 7.49763C14.9382 7.47205 14.9577 7.44167 14.9706 7.40832C14.9835 7.37497 14.9895 7.33936 14.9882 7.30363V6.76363C14.9895 6.7279 14.9835 6.69228 14.9706 6.65893C14.9577 6.62558 14.9382 6.5952 14.9132 6.56963H14.9142Z" fill="#303030"/>
</g>
<defs>
<clipPath id="clip0_3413_19734">
<rect width="15" height="13" fill="white"/>
</clipPath>
</defs>
</svg>
