<svg width="17" height="15" viewBox="0 0 17 15" fill="none" xmlns="http://www.w3.org/2000/svg">
<path d="M11.866 11.6457H9.06L5.867 7.94171L2.746 11.6457H0L4.524 6.58171L0.218 1.80371H2.988L5.988 5.26771L9.011 1.80371H11.661L7.306 6.58171L11.866 11.6457ZM13.591 13.7037L15.418 12.3357C16.058 11.9007 16.48 11.4957 16.682 11.1237C16.884 10.7517 16.984 10.3507 16.984 9.92171C16.984 9.22171 16.747 8.65571 16.274 8.22571C15.8 7.79471 15.177 7.57971 14.405 7.57971C13.661 7.57971 13.065 7.79771 12.62 8.23271C12.174 8.66871 11.95 9.32471 11.95 10.2027H13.386C13.386 9.67871 13.48 9.31671 13.667 9.11571C13.855 8.91571 14.112 8.81471 14.439 8.81471C14.766 8.81471 15.025 8.91671 15.216 9.12071C15.406 9.32471 15.502 9.57871 15.502 9.88071C15.502 10.1837 15.414 10.4577 15.236 10.7027C15.059 10.9477 14.566 11.3607 13.758 11.9427C13.066 12.4427 12.13 12.9137 11.848 13.3557L11.864 14.9997H17V13.7037H13.59H13.591Z" fill="white"/>
</svg>
