<svg width="17" height="15" viewBox="0 0 17 15" fill="none" xmlns="http://www.w3.org/2000/svg">
<path d="M7.305 10.1649L11.865 14.9999H9.057L5.865 11.4639L2.746 14.9999H0L4.523 10.1649L0.218 5.60285H2.988L5.986 8.90985L9.01 5.60285H11.659L7.305 10.1649V10.1649ZM13.539 6.89585L15.418 5.58985C16.058 5.17385 16.48 4.78885 16.682 4.43285C16.883 4.07685 16.984 3.69485 16.984 3.28485C16.984 2.61585 16.747 2.07485 16.274 1.66485C15.8 1.25385 15.177 1.04785 14.406 1.04785C13.662 1.04785 13.066 1.25585 12.621 1.67185C12.174 2.08785 11.951 2.71485 11.951 3.55285H13.387C13.387 3.05285 13.481 2.70685 13.668 2.51485C13.856 2.32385 14.113 2.22785 14.44 2.22785C14.767 2.22785 15.025 2.32485 15.217 2.51985C15.407 2.71485 15.503 2.95685 15.503 3.24585C15.503 3.53585 15.414 3.79585 15.237 4.03085C15.06 4.26585 14.567 4.65885 13.758 5.21485C13.067 5.69185 12.131 6.14185 11.85 6.56485L11.864 8.13385H17V6.89585H13.539V6.89585Z" fill="#303030"/>
</svg>
