<svg width="16" height="16" viewBox="0 0 16 16" fill="none" xmlns="http://www.w3.org/2000/svg">
<path d="M6.045 2V2.992L4.785 3V8.172C4.785 9.031 5.028 9.684 5.512 10.129C5.996 10.574 6.636 10.797 7.43 10.797C8.266 10.797 8.939 10.576 9.449 10.133C9.96 9.691 10.215 9.037 10.215 8.172V3L8.955 2.992V2H13V2.992L11.739 3V8.172C11.739 9.406 11.341 10.353 10.544 11.012C9.747 11.671 8.709 12 7.43 12C6.188 12 5.182 11.671 4.413 11.012C3.644 10.353 3.261 9.407 3.261 8.172V3L2 2.992V2H6.045ZM2 13H13V14H2V13Z" fill="#303030"/>
</svg>
