<svg width="15" height="15" viewBox="0 0 15 15" fill="none" xmlns="http://www.w3.org/2000/svg">
<g clip-path="url(#clip0_3415_19839)">
<path fill-rule="evenodd" clip-rule="evenodd" d="M13.9556 1.03655C13.2901 0.372765 12.3885 0 11.4486 0C10.5086 0 9.60708 0.372765 8.94159 1.03655L6.43559 3.54355C6.38131 3.59324 6.33766 3.65341 6.30727 3.72044C6.27688 3.78746 6.26038 3.85994 6.25876 3.93351C6.25714 4.00708 6.27044 4.08022 6.29785 4.14851C6.32526 4.2168 6.36622 4.27884 6.41826 4.33087C6.47029 4.38291 6.53233 4.42387 6.60062 4.45128C6.66891 4.47869 6.74205 4.49199 6.81562 4.49037C6.88919 4.48875 6.96168 4.47225 7.0287 4.44186C7.09572 4.41147 7.15589 4.36782 7.20559 4.31355L9.71359 1.80755C9.94121 1.57967 10.2117 1.39915 10.5095 1.27643C10.8073 1.15371 11.1265 1.09121 11.4486 1.09255C12.1066 1.09255 12.7236 1.34655 13.1846 1.80755C13.6446 2.26855 13.8996 2.88555 13.8996 3.54355C13.8996 4.20155 13.6456 4.81755 13.1846 5.27855L9.90659 8.55755C9.44579 9.01725 8.82147 9.27541 8.17059 9.27541C7.5197 9.27541 6.89538 9.01725 6.43459 8.55755C6.33234 8.4553 6.19368 8.39787 6.04909 8.39787C5.9045 8.39787 5.76583 8.4553 5.66359 8.55755C5.56134 8.65979 5.50391 8.79846 5.50391 8.94305C5.50391 9.08764 5.56134 9.22631 5.66359 9.32855C5.99255 9.65802 6.38338 9.91924 6.81361 10.0972C7.24384 10.2752 7.705 10.3664 8.17059 10.3655C9.07859 10.3655 9.98659 10.0195 10.6776 9.32855L13.9556 6.05055C14.2853 5.72188 14.5466 5.33107 14.7242 4.90073C14.9019 4.4704 14.9924 4.0091 14.9906 3.54355C14.9906 2.59355 14.6236 1.70355 13.9556 1.03655Z" fill="white"/>
<path fill-rule="evenodd" clip-rule="evenodd" d="M7.40002 11.0645L5.27802 13.1845C5.05051 13.4126 4.78002 13.5933 4.48222 13.7162C4.18441 13.8391 3.86519 13.9018 3.54302 13.9005C3.22075 13.902 2.90139 13.8396 2.6034 13.7169C2.30542 13.5942 2.03473 13.4136 1.80702 13.1855C1.34738 12.7249 1.08924 12.1007 1.08924 11.45C1.08924 10.7993 1.34738 10.1751 1.80702 9.71451L4.89302 6.62851C5.12065 6.40063 5.39118 6.22011 5.68897 6.09739C5.98677 5.97467 6.30593 5.91217 6.62802 5.91351C7.28602 5.91351 7.90302 6.16751 8.36402 6.62851C8.41464 6.67913 8.47474 6.71929 8.54089 6.74669C8.60703 6.77409 8.67793 6.78819 8.74952 6.78819C8.82111 6.78819 8.89201 6.77409 8.95815 6.74669C9.0243 6.71929 9.0844 6.67913 9.13502 6.62851C9.18564 6.57788 9.2258 6.51778 9.2532 6.45164C9.2806 6.3855 9.2947 6.3146 9.2947 6.24301C9.2947 6.17142 9.2806 6.10052 9.2532 6.03438C9.2258 5.96823 9.18564 5.90813 9.13502 5.85751C8.46953 5.19373 7.56796 4.82096 6.62802 4.82096C5.68808 4.82096 4.78651 5.19373 4.12102 5.85751L1.03602 8.94351C0.706224 9.27198 0.444847 9.66259 0.267018 10.0927C0.0891891 10.5229 -0.00156095 10.984 2.03138e-05 11.4495C2.03138e-05 12.3995 0.36702 13.2895 1.03502 13.9565C1.36357 14.2861 1.75422 14.5473 2.18437 14.725C2.61452 14.9026 3.07563 14.9932 3.54102 14.9915C4.49102 14.9915 5.38102 14.6235 6.04802 13.9565L8.17002 11.8355C8.27226 11.7333 8.3297 11.5946 8.3297 11.45C8.3297 11.3054 8.27226 11.1667 8.17002 11.0645C8.06778 10.9623 7.92911 10.9048 7.78452 10.9048C7.63993 10.9048 7.50126 10.9623 7.39902 11.0645H7.40002ZM9.27402 12.0015C9.12939 12.0015 8.99066 12.0589 8.88829 12.1611C8.78593 12.2633 8.72828 12.4019 8.72802 12.5465V14.1835C8.73404 14.3241 8.79415 14.457 8.89579 14.5544C8.99743 14.6518 9.13276 14.7061 9.27352 14.7061C9.41428 14.7061 9.54961 14.6518 9.65125 14.5544C9.75289 14.457 9.813 14.3241 9.81902 14.1835V12.5465C9.81902 12.402 9.7616 12.2633 9.65939 12.1611C9.55719 12.0589 9.41856 12.0015 9.27402 12.0015ZM11.23 11.6155C11.1793 11.5648 11.1192 11.5246 11.0529 11.4972C10.9867 11.4697 10.9157 11.4556 10.844 11.4556C10.7723 11.4556 10.7013 11.4697 10.6351 11.4972C10.5689 11.5246 10.5087 11.5648 10.458 11.6155C10.4073 11.6662 10.3671 11.7264 10.3397 11.7926C10.3123 11.8588 10.2981 11.9298 10.2981 12.0015C10.2981 12.0732 10.3123 12.1442 10.3397 12.2104C10.3671 12.2766 10.4073 12.3368 10.458 12.3875L11.615 13.5435C11.6655 13.5944 11.7256 13.6348 11.7917 13.6623C11.8579 13.6899 11.9288 13.7041 12.0005 13.7041C12.0722 13.7041 12.1432 13.6899 12.2093 13.6623C12.2755 13.6348 12.3355 13.5944 12.386 13.5435C12.488 13.4413 12.5453 13.3029 12.5453 13.1585C12.5453 13.0141 12.488 12.8757 12.386 12.7735L11.23 11.6155ZM12.537 9.81951H10.9C10.7594 9.82553 10.6265 9.88564 10.5291 9.98728C10.4317 10.0889 10.3774 10.2242 10.3774 10.365C10.3774 10.5058 10.4317 10.6411 10.5291 10.7427C10.6265 10.8444 10.7594 10.9045 10.9 10.9105H12.537C12.6759 10.9021 12.8062 10.841 12.9016 10.7397C12.9969 10.6384 13.05 10.5046 13.05 10.3655C13.05 10.2264 12.9969 10.0926 12.9016 9.99129C12.8062 9.89001 12.6759 9.82892 12.537 9.82051V9.81951ZM4.91002 3.54651C5.05448 3.54624 5.19295 3.48874 5.2951 3.38659C5.39725 3.28444 5.45476 3.14597 5.45502 3.00151V1.36551C5.44661 1.22667 5.38552 1.09628 5.28424 1.00095C5.18296 0.905622 5.04911 0.852539 4.91002 0.852539C4.77093 0.852539 4.63708 0.905622 4.5358 1.00095C4.43452 1.09628 4.37343 1.22667 4.36502 1.36551V3.00151C4.36502 3.30251 4.60902 3.54651 4.91002 3.54651ZM2.88802 3.93251C2.9385 3.98339 2.99855 4.02378 3.06471 4.05134C3.13088 4.07891 3.20184 4.0931 3.27352 4.0931C3.3452 4.0931 3.41616 4.07891 3.48233 4.05134C3.54849 4.02378 3.60854 3.98339 3.65902 3.93251C3.70967 3.8819 3.74984 3.8218 3.77725 3.75565C3.80467 3.68951 3.81877 3.61861 3.81877 3.54701C3.81877 3.47541 3.80467 3.40451 3.77725 3.33836C3.74984 3.27222 3.70967 3.21212 3.65902 3.16151L2.50202 2.00451C2.45194 1.95177 2.39182 1.90958 2.32518 1.88043C2.25855 1.85129 2.18675 1.83578 2.11403 1.83481C2.0413 1.83384 1.96912 1.84744 1.90174 1.87481C1.83435 1.90217 1.77312 1.94274 1.72166 1.99414C1.6702 2.04553 1.62955 2.10671 1.6021 2.17406C1.57465 2.24141 1.56095 2.31357 1.56183 2.3863C1.5627 2.45902 1.57812 2.53084 1.60717 2.59751C1.63623 2.66418 1.67834 2.72436 1.73102 2.77451L2.88802 3.93251ZM1.62802 5.72951H3.26402C3.40883 5.72951 3.54771 5.67198 3.6501 5.56959C3.7525 5.46719 3.81002 5.32832 3.81002 5.18351C3.81002 5.0387 3.7525 4.89982 3.6501 4.79743C3.54771 4.69503 3.40883 4.63751 3.26402 4.63751H1.62802C1.48739 4.64353 1.35451 4.70364 1.25713 4.80528C1.15975 4.90692 1.10538 5.04225 1.10538 5.18301C1.10538 5.32377 1.15975 5.4591 1.25713 5.56074C1.35451 5.66238 1.48739 5.72249 1.62802 5.72851V5.72951Z" fill="white"/>
</g>
<defs>
<clipPath id="clip0_3415_19839">
<rect width="15" height="15" fill="white"/>
</clipPath>
</defs>
</svg>
