<svg width="16" height="14" viewBox="0 0 16 14" fill="none" xmlns="http://www.w3.org/2000/svg">
<g clip-path="url(#clip0_3413_19751)">
<path fill-rule="evenodd" clip-rule="evenodd" d="M1.72 3.42677C2.671 3.42677 3.442 2.65877 3.442 1.71877C3.442 0.77877 2.67 0.00976953 1.72 0.00976953C0.77 0.00776953 0 0.77477 0 1.71477C0 2.65477 0.774 3.42577 1.72 3.42577V3.42677ZM1.72 0.801769C2.23 0.801769 2.642 1.21377 2.642 1.71577C2.642 1.96003 2.54497 2.19429 2.37225 2.36701C2.19952 2.53974 1.96526 2.63677 1.721 2.63677C1.47674 2.63677 1.24248 2.53974 1.06975 2.36701C0.897034 2.19429 0.8 1.96003 0.8 1.71577C0.801585 1.47281 0.899212 1.24034 1.07157 1.06911C1.24394 0.897869 1.47704 0.801764 1.72 0.801769V0.801769ZM1.72 8.70277C2.671 8.70277 3.442 7.93477 3.442 6.99477C3.442 6.05477 2.67 5.28677 1.72 5.28677C0.77 5.28677 0 6.05177 0 6.99477C0 7.93777 0.774 8.70277 1.72 8.70277ZM1.72 6.08077C2.23 6.08077 2.642 6.49277 2.642 6.99477C2.642 7.23903 2.54497 7.47329 2.37225 7.64602C2.19952 7.81874 1.96526 7.91577 1.721 7.91577C1.47674 7.91577 1.24248 7.81874 1.06975 7.64602C0.897034 7.47329 0.8 7.23903 0.8 6.99477C0.8 6.48977 1.215 6.08077 1.72 6.08077V6.08077ZM1.72 13.9818C2.671 13.9818 3.442 13.2138 3.442 12.2738C3.442 11.3308 2.668 10.5658 1.721 10.5658C0.774 10.5658 0 11.3338 0 12.2738C0 13.2138 0.774 13.9818 1.72 13.9818ZM1.72 11.3568C2.23 11.3568 2.642 11.7688 2.642 12.2708C2.642 12.515 2.54497 12.7493 2.37225 12.922C2.19952 13.0947 1.96526 13.1918 1.721 13.1918C1.47674 13.1918 1.24248 13.0947 1.06975 12.922C0.897034 12.7493 0.8 12.515 0.8 12.2708C0.801585 12.0278 0.899212 11.7953 1.07157 11.6241C1.24394 11.4529 1.47704 11.3568 1.72 11.3568V11.3568ZM5.744 2.11477H15.589C15.6415 2.1149 15.6936 2.10468 15.7421 2.0847C15.7907 2.06472 15.8349 2.03537 15.8721 1.99832C15.9094 1.96127 15.9389 1.91725 15.9592 1.86877C15.9794 1.82029 15.9899 1.7683 15.99 1.71577C15.9899 1.66324 15.9794 1.61125 15.9592 1.56277C15.9389 1.51429 15.9094 1.47027 15.8721 1.43322C15.8349 1.39617 15.7907 1.36682 15.7421 1.34683C15.6936 1.32685 15.6415 1.31664 15.589 1.31677H5.744C5.69139 1.31651 5.63924 1.32663 5.59054 1.34655C5.54185 1.36647 5.49756 1.3958 5.46022 1.43286C5.42288 1.46993 5.39321 1.51399 5.37293 1.56254C5.35264 1.61109 5.34213 1.66316 5.342 1.71577C5.34213 1.76838 5.35264 1.82045 5.37293 1.869C5.39321 1.91754 5.42288 1.96161 5.46022 1.99867C5.49756 2.03574 5.54185 2.06507 5.59054 2.08499C5.63924 2.10491 5.69139 2.11503 5.744 2.11477V2.11477ZM5.744 7.39377H15.589C15.6415 7.3939 15.6936 7.38369 15.7421 7.3637C15.7907 7.34372 15.8349 7.31437 15.8721 7.27732C15.9094 7.24027 15.9389 7.19625 15.9592 7.14777C15.9794 7.09929 15.9899 7.0473 15.99 6.99477C15.9895 6.88886 15.947 6.78748 15.8718 6.71287C15.7966 6.63825 15.6949 6.5965 15.589 6.59677H5.744C5.69147 6.59651 5.6394 6.60659 5.59077 6.62645C5.54214 6.64631 5.4979 6.67555 5.46057 6.71251C5.42324 6.74947 5.39356 6.79342 5.37321 6.84185C5.35287 6.89028 5.34226 6.94224 5.342 6.99477C5.34213 7.04738 5.35264 7.09945 5.37293 7.148C5.39321 7.19654 5.42288 7.24061 5.46022 7.27767C5.49756 7.31474 5.54185 7.34407 5.59054 7.36399C5.63924 7.38391 5.69139 7.39403 5.744 7.39377ZM5.744 12.6698H15.589C15.6415 12.6699 15.6936 12.6597 15.7421 12.6397C15.7907 12.6197 15.8349 12.5904 15.8721 12.5533C15.9094 12.5163 15.9389 12.4722 15.9592 12.4238C15.9794 12.3753 15.9899 12.3233 15.99 12.2708C15.9899 12.2182 15.9794 12.1663 15.9592 12.1178C15.9389 12.0693 15.9094 12.0253 15.8721 11.9882C15.8349 11.9512 15.7907 11.9218 15.7421 11.9018C15.6936 11.8819 15.6415 11.8716 15.589 11.8718H5.744C5.6913 11.8715 5.63907 11.8817 5.59031 11.9016C5.54155 11.9216 5.49722 11.951 5.45986 11.9882C5.42251 12.0254 5.39287 12.0696 5.37264 12.1182C5.35241 12.1669 5.342 12.2191 5.342 12.2718C5.34226 12.3243 5.35287 12.3763 5.37321 12.4247C5.39356 12.4731 5.42324 12.5171 5.46057 12.554C5.4979 12.591 5.54214 12.6202 5.59077 12.6401C5.6394 12.6599 5.69147 12.67 5.744 12.6698V12.6698Z" fill="#303030"/>
</g>
<defs>
<clipPath id="clip0_3413_19751">
<rect width="16" height="14" fill="white"/>
</clipPath>
</defs>
</svg>
